<?xml version="1.0" standalone="no"?>
<!DOCTYPE svg PUBLIC "-//W3C//DTD SVG 20010904//EN"
 "http://www.w3.org/TR/2001/REC-SVG-20010904/DTD/svg10.dtd">
<svg version="1.0" xmlns="http://www.w3.org/2000/svg"
 width="100.000000pt" height="100.000000pt" viewBox="0 0 100.000000 100.000000"
 preserveAspectRatio="xMidYMid meet">
<metadata>
Created by potrace 1.11, written by Peter Selinger 2001-2013
</metadata>
<g transform="translate(0.000000,100.000000) scale(0.100000,-0.100000)"
fill="#000000" stroke="none">
<path d="M675 847 c-102 -26 -154 -93 -156 -200 -1 -42 -5 -54 -15 -50 -8 3
-14 0 -14 -7 0 -7 -7 -4 -17 6 -52 52 -154 67 -223 33 -39 -19 -90 -63 -90
-78 0 -5 -4 -11 -8 -13 -11 -4 -63 -140 -57 -147 3 -2 11 3 18 13 9 13 29 18
73 20 66 2 64 1 154 66 58 43 105 63 150 64 40 2 52 -185 20 -302 -15 -54 -16
-65 -4 -77 41 -40 68 35 68 180 -1 77 -6 113 -22 154 -28 73 -23 78 121 131
74 28 133 84 143 136 3 22 13 46 21 55 12 15 10 17 -18 23 -43 8 -96 6 -144
-7z"/>
</g>
</svg>
